<svg viewBox="0 0 200 160" xmlns="http://www.w3.org/2000/svg">
  <!-- Blue C shape -->
  <path d="M 170 40 C 170 20 150 10 130 10 C 80 10 40 40 40 100 C 40 160 80 150 130 150 C 150 150 170 140 170 120 L 140 120 C 140 130 135 140 130 140 C 85 140 60 120 60 100 C 60 80 85 60 130 60 C 135 60 140 70 140 80 L 170 80 C 170 60 150 40 130 40 C 85 40 40 70 40 100 C 40 130 85 160 130 160 C 150 160 170 150 170 130 L 170 40 Z" fill="#0F3D80"/>

  <!-- White leaf inside -->
  <ellipse cx="85" cy="85" rx="10" ry="25" fill="white" opacity="0.85" transform="rotate(-25 85 85)"/>

  <!-- Orange shape bottom right -->
  <path d="M 125 110 Q 160 110 180 135 Q 200 155 200 160 L 170 160 Q 170 145 155 135 Q 140 125 125 125 Z" fill="#F59E0B"/>
</svg>
